<svg xmlns="http://www.w3.org/2000/svg" width="1600" height="900" viewBox="0 0 1600 900"><defs><style>.\38 c85c3a6-142d-42ed-abfc-fc48429adc99{isolation:isolate;}.b45f8317-63ec-41cc-a358-6ceda7f10340{fill:#00a390;}.\30 0dd3c8a-3a54-400c-9bf1-7f3703121d1c,.\38 d862062-b2ad-4599-9061-8ce316dd8d41{fill:#006d72;}.\38 d862062-b2ad-4599-9061-8ce316dd8d41{opacity:0.35;mix-blend-mode:multiply;}.\38 4df12e4-f312-4d48-b44a-c8c37b1d3e4f{fill:#dfeae6;}.eee31ffb-ff61-4077-b772-49f96b22ab94{fill:#edf4f1;}.\32 1049dac-b403-4b9b-9469-cb931585f2e4,.\32 5a99e1e-13db-4325-a7a1-e6d40bae60c2,.\32 b9e08bc-e9ca-4da5-a9ab-ae3a449d9acf,.\38 0d433d1-32a0-4918-bc56-40723e598acf,.aacf4acc-c5d1-480d-8d1e-b5d2f2c60bbb,.aaee8624-5bc6-4361-8260-e7de626eeec4,.c09fbd05-fd72-4385-90aa-baea91f75cd3,.cec4f41f-f023-48c0-a421-4b1411f41517{fill:none;stroke-miterlimit:10;}.c09fbd05-fd72-4385-90aa-baea91f75cd3,.cec4f41f-f023-48c0-a421-4b1411f41517{stroke:#b6ccc4;}.c09fbd05-fd72-4385-90aa-baea91f75cd3{stroke-width:3.87px;}.\32 b914579-5ef5-4885-b8cd-2c2a67aa9e96{fill:#b7b3b6;}.\32 b914579-5ef5-4885-b8cd-2c2a67aa9e96,.bc67fb99-8a6d-4415-ba6c-c455b827d931{opacity:0.5;}.cec4f41f-f023-48c0-a421-4b1411f41517{stroke-width:3.51px;}.ef98a970-9351-4ad1-b75e-3f7dea15c08d{fill:#fff;}.\35 c86bcfd-daf2-4ab1-9403-d0a925f16b75{fill:#e88f00;}.b5de22a8-ddbc-4890-8888-e383747ee2fb{fill:#ffbe3b;}.\30 4a4f328-b0e3-4cbb-8a76-1e5f1a16b3ff{fill:#ffa910;}.c13746d5-2d1c-4388-b953-3a41a67672d7{fill:#c9bbad;}.\39 0151adb-2fa5-4974-8293-989f6fb5a83f{fill:#232323;}.\34 03f13f9-b5c0-4123-8584-082b53b11a2f{fill:#603a3a;}.\31 cd4cac8-eb32-44e1-b504-3651d4dd1628{fill:#fcede0;}.\33 0eb5d7e-da22-4867-87e4-319d17bb2714{fill:#4c2c2c;}.\32 0e92aea-e52d-42f4-b8e3-1aa5414ed3b7{fill:#703636;}.c542c1e2-f45b-4587-b1ed-dcf7a1c3ff11{fill:#00afaf;}.\38 0d433d1-32a0-4918-bc56-40723e598acf{stroke:#2d1a1a;stroke-width:6.88px;}.e7370cd5-92fc-4ff0-9882-15997802d28b{fill:#775762;}.aba336e7-d757-4b39-b5f0-27020ab51870{fill:#ad9eab;}.\36 3112e31-0cc9-4d48-a28b-11d883917ec3{fill:#7f6f7a;}.dd5ac349-3c29-4220-b5be-764765a73fd3{fill:#86f6fc;}.\37 4198a6d-b876-46c6-b481-64316d43b35f{fill:#3eedff;}.\31 408ffb9-d8b2-4a3f-90c5-85761ae437e3{fill:#1ddfff;}.\30 5be30f3-97c7-423c-b09e-19ee4ce7123b{fill:#00cfff;}.a95b97bc-6142-4ec1-9d15-83afd605db14{fill:#f9cf00;}.\36 cb2fd38-f89f-492a-a596-f416ae28e77a{fill:#ff004f;}.f5147f18-745b-41cd-bad2-707504e4b6f7{fill:#c9f900;}.fb496209-cda0-4889-9191-ef6c33cfecc9{fill:#b874d1;}.\39 ff40821-44b4-4803-bcb5-afcd3a540a8d{fill:#00f4a3;}.dd8714f0-5196-42cb-a9e7-1a887656526b{fill:#ff6989;}.\32 b9e08bc-e9ca-4da5-a9ab-ae3a449d9acf{stroke:#b6b6b6;stroke-width:1.02px;}.\36 8c69336-11c4-4c08-8724-fef73e9d3238{fill:#828b8e;}.\38 7a007fb-8cd6-4e5a-8c54-f13288b50290{fill:#968f95;}.\31 7a3d64a-64c1-4ef9-b951-0dd7d5e6fbc5{fill:#d8ced7;}.\31 417c864-3349-4acf-924b-e2fae97bba3d{fill:#f2f0f2;}.ee89003d-fa7b-4f28-899d-6a6aabf59700{fill:#c3d1cf;}.\38 f08a0fc-66bc-4b6c-b34a-def9cf19495d{fill:#544751;}.\38 6063cf4-de28-41b6-8b7d-065bb0f7459b{fill:#2d2d2d;}.\38 24741b8-acf6-49be-be08-03358fabc06c{fill:#363636;}.\30 ca14fd6-05f4-4eba-b25e-df2ca587b081{fill:#505050;}.a5633c78-0e46-45e4-af1b-aedcb8a0aaed{fill:#424242;}.\31 8a5449e-8db4-4317-af09-493bda9c13bc{fill:#006a7c;}.\33 e39ce16-54e6-4edf-b103-3dd691af5d01{fill:#ffb533;}.a889e1c6-5920-4500-8bb6-37df4103951f{fill:#e56700;}.\35 6b675f3-4761-4913-91b8-cb13d6b692da{fill:#ff9d00;}.d3e29d67-1574-4426-94ab-8db6dd6ca447{fill:#ffde3e;}.\32 5a99e1e-13db-4325-a7a1-e6d40bae60c2,.aaee8624-5bc6-4361-8260-e7de626eeec4{stroke:#dd6900;}.aaee8624-5bc6-4361-8260-e7de626eeec4{stroke-width:3.1px;}.\32 5a99e1e-13db-4325-a7a1-e6d40bae60c2{stroke-width:2.19px;}.\33 541ce03-6555-462b-85d2-0e5282b80bf6{fill:#ffbc00;}.a2923979-10dc-4db9-958e-6e8c1f85b193{fill:#ffae4d;}.d59ba862-0923-445f-a855-f4e073a80fe1{fill:#ffd49c;}.fadc242f-02f0-42c9-968e-d9caeecfcf28{fill:#6d6356;}.\34 1a3e4f3-9947-4600-90de-a47c10026b0c{fill:#b20026;}.\38 ec01d9f-17a0-411a-9b6f-f4b18bc7ae18{fill:#d63200;}.\33 938126b-5fec-46ae-b5d1-d02fbf1163b9{fill:#ce0036;}.\33 913d295-0dcc-4302-93a6-0139a6cc9a64{fill:#897e74;}.\36 92c14b6-7c42-4e5b-9e4b-d790a2f8e5f7{fill:#a89a8f;}.aacf4acc-c5d1-480d-8d1e-b5d2f2c60bbb{stroke:#a89a8f;}.\32 1049dac-b403-4b9b-9469-cb931585f2e4,.aacf4acc-c5d1-480d-8d1e-b5d2f2c60bbb{stroke-width:1.8px;}.\32 1049dac-b403-4b9b-9469-cb931585f2e4{stroke:#cebbae;}.\37 2ba8529-1303-459e-8335-84d3855e5f5e{fill:#ef1443;}.\34 2c9de3b-dbce-4ee2-b5b9-0b939f31fb0b{fill:#2d1a1a;}</style></defs><title>scheduling</title><g class="8c85c3a6-142d-42ed-abfc-fc48429adc99"><g id="99e45f5a-452f-445e-be0b-e429e95b02d0" data-name="Layer 1"><rect class="b45f8317-63ec-41cc-a358-6ceda7f10340" y="1.33" width="1600" height="900"/><path class="00dd3c8a-3a54-400c-9bf1-7f3703121d1c" d="M405.74,637.07a18.84,18.84,0,0,1-.14-26.64l9.25-9.35,47,91.57Z"/><path class="8d862062-b2ad-4599-9061-8ce316dd8d41" d="M1178,499.73,1015.28,379.36V303.44a20.78,20.78,0,0,0-20.58-21H567.46a20.78,20.78,0,0,0-20.58,21V404.59l-117,32.63,13.73,49.24L412,502.67l-30.77,15.81-11-4.21v10.24L412,605.8,507.1,788l144-74,105.75-28.81v-9.31l-19.12-66.54H828l65.11,51.24-83.93,36.84L803.25,700l-7.18,3.15a7.59,7.59,0,0,0-3.94,9.91.3.3,0,0,0,0,.1L793,715a7.46,7.46,0,0,0,2.54,3.12,7.62,7.62,0,0,0,4.52,1.43,6.3,6.3,0,0,0,.75-.05,7.13,7.13,0,0,0,1.48-.32A7,7,0,0,0,803,719l8.28-3.63,4.78-2.1,93.59-41.07,113.16,33.14L1049,672.75l52.4,17.79a7,7,0,0,0,8.89-4.28l52.16-149.68v-8.64L1178,508.11Z"/><rect class="84df12e4-f312-4d48-b44a-c8c37b1d3e4f" x="469.15" y="388.55" width="248.39" height="326.67" transform="translate(-126.41 179.62) rotate(-15.58)"/><polygon class="eee31ffb-ff61-4077-b772-49f96b22ab94" points="517.58 742.57 429.85 427.91 669.11 361.2 517.58 742.57"/><line class="c09fbd05-fd72-4385-90aa-baea91f75cd3" x1="461.21" y1="450.09" x2="653.75" y2="396.41"/><line class="c09fbd05-fd72-4385-90aa-baea91f75cd3" x1="463.71" y1="459.05" x2="656.25" y2="405.37"/><line class="c09fbd05-fd72-4385-90aa-baea91f75cd3" x1="466.12" y1="467.7" x2="658.66" y2="414.02"/><line class="c09fbd05-fd72-4385-90aa-baea91f75cd3" x1="468.62" y1="476.66" x2="661.16" y2="422.98"/><line class="c09fbd05-fd72-4385-90aa-baea91f75cd3" x1="505.08" y1="486.09" x2="634.84" y2="449.91"/><line class="c09fbd05-fd72-4385-90aa-baea91f75cd3" x1="507.58" y1="495.06" x2="637.34" y2="458.88"/><polygon class="2b914579-5ef5-4885-b8cd-2c2a67aa9e96" points="604.83 381.22 597.29 381.22 546.92 395.26 546.92 461.7 604.83 461.7 604.83 381.22"/><line class="c09fbd05-fd72-4385-90aa-baea91f75cd3" x1="685.94" y1="511.85" x2="493.4" y2="565.53"/><line class="c09fbd05-fd72-4385-90aa-baea91f75cd3" x1="683.44" y1="502.88" x2="490.9" y2="556.56"/><line class="c09fbd05-fd72-4385-90aa-baea91f75cd3" x1="681.03" y1="494.24" x2="488.49" y2="547.92"/><line class="c09fbd05-fd72-4385-90aa-baea91f75cd3" x1="678.53" y1="485.27" x2="485.99" y2="538.95"/><line class="c09fbd05-fd72-4385-90aa-baea91f75cd3" x1="642.07" y1="475.85" x2="512.31" y2="512.02"/><line class="c09fbd05-fd72-4385-90aa-baea91f75cd3" x1="639.57" y1="466.88" x2="509.81" y2="503.05"/><line class="c09fbd05-fd72-4385-90aa-baea91f75cd3" x1="495.9" y1="574.5" x2="688.44" y2="520.82"/><line class="c09fbd05-fd72-4385-90aa-baea91f75cd3" x1="498.4" y1="583.47" x2="690.94" y2="529.79"/><line class="c09fbd05-fd72-4385-90aa-baea91f75cd3" x1="500.81" y1="592.11" x2="693.35" y2="538.43"/><line class="c09fbd05-fd72-4385-90aa-baea91f75cd3" x1="503.31" y1="601.08" x2="695.85" y2="547.4"/><polygon class="84df12e4-f312-4d48-b44a-c8c37b1d3e4f" points="906.65 662.89 818.03 593.14 1001.13 360.51 1178.01 499.73 1022.82 696.91 906.65 662.89"/><polygon class="eee31ffb-ff61-4077-b772-49f96b22ab94" points="818.03 593.14 1001.13 360.51 1178.01 499.73 818.03 593.14"/><line class="cec4f41f-f023-48c0-a421-4b1411f41517" x1="1001.7" y1="395.32" x2="1144.05" y2="507.35"/><line class="cec4f41f-f023-48c0-a421-4b1411f41517" x1="996.48" y1="401.95" x2="1138.83" y2="513.98"/><line class="cec4f41f-f023-48c0-a421-4b1411f41517" x1="991.46" y1="408.34" x2="1133.8" y2="520.37"/><line class="cec4f41f-f023-48c0-a421-4b1411f41517" x1="986.24" y1="414.97" x2="1128.58" y2="527"/><line class="cec4f41f-f023-48c0-a421-4b1411f41517" x1="1087.31" y1="579.44" x2="944.96" y2="467.4"/><line class="cec4f41f-f023-48c0-a421-4b1411f41517" x1="1092.53" y1="572.81" x2="950.18" y2="460.77"/><line class="cec4f41f-f023-48c0-a421-4b1411f41517" x1="1097.56" y1="566.42" x2="955.21" y2="454.39"/><line class="cec4f41f-f023-48c0-a421-4b1411f41517" x1="1102.77" y1="559.79" x2="960.43" y2="447.76"/><line class="cec4f41f-f023-48c0-a421-4b1411f41517" x1="939.75" y1="474.03" x2="1082.09" y2="586.07"/><line class="cec4f41f-f023-48c0-a421-4b1411f41517" x1="934.53" y1="480.66" x2="1076.87" y2="592.7"/><line class="cec4f41f-f023-48c0-a421-4b1411f41517" x1="929.5" y1="487.05" x2="1071.84" y2="599.09"/><line class="cec4f41f-f023-48c0-a421-4b1411f41517" x1="924.28" y1="493.68" x2="1066.63" y2="605.72"/><line class="cec4f41f-f023-48c0-a421-4b1411f41517" x1="981.02" y1="421.6" x2="1123.36" y2="533.63"/><line class="cec4f41f-f023-48c0-a421-4b1411f41517" x1="975.8" y1="428.23" x2="1118.14" y2="540.26"/><line class="cec4f41f-f023-48c0-a421-4b1411f41517" x1="970.77" y1="434.62" x2="1113.12" y2="546.65"/><line class="cec4f41f-f023-48c0-a421-4b1411f41517" x1="965.55" y1="441.25" x2="1107.9" y2="553.28"/><polygon class="ef98a970-9351-4ad1-b75e-3f7dea15c08d" points="1022.82 696.91 1018.24 651.52 906.65 662.89 1022.82 696.91"/><path class="2b914579-5ef5-4885-b8cd-2c2a67aa9e96" d="M1047,588.4V396.65l-45.84-36.09L818,593.19l20.56,16.19h186.73C1037.28,609.38,1047,600,1047,588.4Z"/><rect class="5c86bcfd-daf2-4ab1-9403-d0a925f16b75" x="436.79" y="440.14" width="227.44" height="297.62" transform="translate(-208.3 316.7) rotate(-27.19)"/><polygon class="b5de22a8-ddbc-4890-8888-e383747ee2fb" points="708.55 675.04 506.26 778.98 461.9 692.65 414.85 601.08 370.24 514.26 572.53 410.32 708.55 675.04"/><polygon class="04a4f328-b0e3-4cbb-8a76-1e5f1a16b3ff" points="708.55 675.04 506.25 778.98 572.54 410.32 708.55 675.04"/><polygon class="5c86bcfd-daf2-4ab1-9403-d0a925f16b75" points="522.48 515.25 489.95 531.96 463.4 480.28 522.86 449.73 539.4 481.9 522.48 515.25"/><path class="5c86bcfd-daf2-4ab1-9403-d0a925f16b75" d="M583.41,404.73l-29.16,15V590.34a19.64,19.64,0,0,0,19.46,19.82H689Z"/><polygon class="ef98a970-9351-4ad1-b75e-3f7dea15c08d" points="520.63 511.65 488.1 528.36 461.55 476.68 521.01 446.13 537.55 478.31 520.63 511.65"/><polygon class="c13746d5-2d1c-4388-b953-3a41a67672d7" points="510.61 492.15 537.55 478.31 520.63 511.65 510.61 492.15"/><path class="5c86bcfd-daf2-4ab1-9403-d0a925f16b75" d="M628.37,670.83l-80,80.87a18.84,18.84,0,0,1-26.63.14l-9-8.88L461.9,692.65l-47-91.57,70.79-71.51a2.75,2.75,0,0,1,3.89,0l52.27,51.73L628.35,667A2.74,2.74,0,0,1,628.37,670.83Z"/><path class="90151adb-2fa5-4974-8293-989f6fb5a83f" d="M517.39,436.54l87.16,28,12.51,4c1.76.56,2.51-2.21.76-2.77l-87.16-28-12.51-4c-1.76-.56-2.51,2.2-.76,2.77Z"/><path class="90151adb-2fa5-4974-8293-989f6fb5a83f" d="M686.58,604l-28,87.16-4,12.51c-.57,1.76,2.2,2.51,2.76.76q14-43.59,28-87.16,2-6.25,4-12.51c.57-1.76-2.2-2.51-2.76-.76Z"/><path class="5c86bcfd-daf2-4ab1-9403-d0a925f16b75" d="M444.16,658.2l78.32,77.52a18.15,18.15,0,0,0,25.66-.13l77.11-77.9a3.56,3.56,0,0,0,1.14-2.42v-5.58L491.49,521.57a2.65,2.65,0,0,0-3.74,0l-74.9,75.68Z"/><path class="403f13f9-b5c0-4123-8584-082b53b11a2f" d="M411.87,604.79l73.22-74a5.4,5.4,0,0,1,7.65,0l133.62,118.9c2.64,4.81,2,11.29-.13,13.42l-76.87,77.79a20.91,20.91,0,0,1-29.56.15L412,634.36A20.9,20.9,0,0,1,411.87,604.79Z"/><path class="1cd4cac8-eb32-44e1-b504-3651d4dd1628" d="M409.92,602,487,524.05a2.64,2.64,0,0,1,3.74,0L623.31,651.12c2.4,2,2.81,7.37,1.22,9L547.42,738a18.15,18.15,0,0,1-25.66.13L410.05,627.61A18.15,18.15,0,0,1,409.92,602Z"/><path class="30eb5d7e-da22-4867-87e4-319d17bb2714" d="M409,596.5l77.11-77.9a2.64,2.64,0,0,1,3.74,0L623.55,651a2.64,2.64,0,0,1,0,3.74L546.46,732.6a18.15,18.15,0,0,1-25.66.13L409.09,622.16A18.15,18.15,0,0,1,409,596.5Z"/><path class="20e92aea-e52d-42f4-b8e3-1aa5414ed3b7" d="M409.92,593.38,487,515.47a2.65,2.65,0,0,1,3.74,0L624.51,647.82a2.65,2.65,0,0,1,0,3.75l-77.11,77.9a18.15,18.15,0,0,1-25.66.13L410.05,619A18.15,18.15,0,0,1,409.92,593.38Z"/><path class="20e92aea-e52d-42f4-b8e3-1aa5414ed3b7" d="M533.14,734.79a18.09,18.09,0,0,0,14.28-5.32l79-79.78-133.32-132Z"/><rect class="c542c1e2-f45b-4587-b1ed-dcf7a1c3ff11" x="455.06" y="609.69" width="130.4" height="53.38" transform="translate(-298.02 558.47) rotate(-45.29)"/><polygon class="c542c1e2-f45b-4587-b1ed-dcf7a1c3ff11" points="520.91 673.66 585.1 608.82 547.16 571.26 508.29 610.54 520.91 673.66"/><line class="80d433d1-32a0-4918-bc56-40723e598acf" x1="559.63" y1="717.13" x2="422.13" y2="581.04"/><path class="e7370cd5-92fc-4ff0-9882-15997802d28b" d="M1014.63,587.28H587.39a20.78,20.78,0,0,1-20.58-21V281.4a20.78,20.78,0,0,1,20.58-21h427.24a20.78,20.78,0,0,1,20.57,21V566.3A20.78,20.78,0,0,1,1014.63,587.28Z"/><path class="aba336e7-d757-4b39-b5f0-27020ab51870" d="M1014.63,584.31H587.39a20.78,20.78,0,0,1-20.58-21V278.43a20.78,20.78,0,0,1,20.58-21h427.24a20.78,20.78,0,0,1,20.57,21V563.34A20.77,20.77,0,0,1,1014.63,584.31Z"/><rect class="63112e31-0cc9-4d48-a28b-11d883917ec3" x="586.74" y="280.37" width="428.54" height="282.93" rx="12.11" ry="12.11"/><rect class="ef98a970-9351-4ad1-b75e-3f7dea15c08d" x="586.74" y="276.19" width="428.54" height="282.93" rx="12.11" ry="12.11"/><rect class="dd5ac349-3c29-4220-b5be-764765a73fd3" x="604.4" y="301.75" width="98.11" height="33.49"/><rect class="74198a6d-b876-46c6-b481-64316d43b35f" x="702.51" y="301.75" width="98.11" height="33.49"/><rect class="1408ffb9-d8b2-4a3f-90c5-85761ae437e3" x="800.62" y="301.75" width="98.11" height="33.49"/><rect class="05be30f3-97c7-423c-b09e-19ee4ce7123b" x="899.12" y="301.75" width="98.11" height="33.49"/><rect class="a95b97bc-6142-4ec1-9d15-83afd605db14" x="604.4" y="362.45" width="98.11" height="14.64"/><rect class="6cb2fd38-f89f-492a-a596-f416ae28e77a" x="702.51" y="385.43" width="196.61" height="14.64"/><rect class="f5147f18-745b-41cd-bad2-707504e4b6f7" x="653.45" y="408.45" width="98.11" height="14.64"/><rect class="fb496209-cda0-4889-9191-ef6c33cfecc9" x="751.95" y="431.26" width="196.61" height="14.64"/><rect class="9ff40821-44b4-4803-bcb5-afcd3a540a8d" x="702.51" y="454.4" width="147.75" height="14.64"/><rect class="dd8714f0-5196-42cb-a9e7-1a887656526b" x="702.51" y="500.59" width="246.05" height="14.64"/><rect class="f5147f18-745b-41cd-bad2-707504e4b6f7" x="751.56" y="477.42" width="98.11" height="14.64"/><rect class="9ff40821-44b4-4803-bcb5-afcd3a540a8d" x="825.24" y="523.42" width="171.39" height="14.64"/><rect class="2b9e08bc-e9ca-4da5-a9ab-ae3a449d9acf" x="604.78" y="301.75" width="392.44" height="33.49"/><rect class="2b9e08bc-e9ca-4da5-a9ab-ae3a449d9acf" x="604.78" y="358.26" width="392.44" height="23.02"/><rect class="2b9e08bc-e9ca-4da5-a9ab-ae3a449d9acf" x="604.78" y="381.24" width="392.44" height="23.02"/><rect class="2b9e08bc-e9ca-4da5-a9ab-ae3a449d9acf" x="604.78" y="404.26" width="392.44" height="23.02"/><rect class="2b9e08bc-e9ca-4da5-a9ab-ae3a449d9acf" x="604.78" y="427.28" width="392.44" height="23.02"/><rect class="2b9e08bc-e9ca-4da5-a9ab-ae3a449d9acf" x="604.78" y="335.24" width="98.11" height="206.68"/><rect class="2b9e08bc-e9ca-4da5-a9ab-ae3a449d9acf" x="604.78" y="450.21" width="392.44" height="23.02"/><rect class="2b9e08bc-e9ca-4da5-a9ab-ae3a449d9acf" x="604.78" y="473.23" width="392.44" height="23.02"/><rect class="2b9e08bc-e9ca-4da5-a9ab-ae3a449d9acf" x="604.78" y="496.2" width="392.44" height="23.02"/><rect class="2b9e08bc-e9ca-4da5-a9ab-ae3a449d9acf" x="604.78" y="519.23" width="392.44" height="23.02"/><rect class="2b9e08bc-e9ca-4da5-a9ab-ae3a449d9acf" x="702.9" y="301.75" width="98.11" height="240.16"/><rect class="2b9e08bc-e9ca-4da5-a9ab-ae3a449d9acf" x="801.01" y="301.75" width="98.11" height="240.16"/><rect class="2b9e08bc-e9ca-4da5-a9ab-ae3a449d9acf" x="899.12" y="301.75" width="98.11" height="240.16"/><rect class="2b9e08bc-e9ca-4da5-a9ab-ae3a449d9acf" x="702.9" y="335.24" width="49.06" height="23.02"/><rect class="2b9e08bc-e9ca-4da5-a9ab-ae3a449d9acf" x="801.01" y="335.24" width="49.06" height="23.02"/><rect class="2b9e08bc-e9ca-4da5-a9ab-ae3a449d9acf" x="899.12" y="335.24" width="49.06" height="23.02"/><rect class="2b9e08bc-e9ca-4da5-a9ab-ae3a449d9acf" x="604.4" y="301.75" width="98.11" height="240.16"/><rect class="2b9e08bc-e9ca-4da5-a9ab-ae3a449d9acf" x="604.4" y="335.24" width="49.06" height="23.02"/><path class="ef98a970-9351-4ad1-b75e-3f7dea15c08d" d="M651.31,322.6,651,322c-3.76,2-9.49.11-9.49-5.62,0-8.58,12.73-8.58,12.73,0a6.72,6.72,0,0,1-1,3.67l1.28,2.11v.41Zm-.32-6.19a3.11,3.11,0,1,0-6.2,0A3.11,3.11,0,1,0,651,316.41Z"/><path class="ef98a970-9351-4ad1-b75e-3f7dea15c08d" d="M655.67,312.76v-2.57h4.77V320h1.88v2.59h-6.81V320h1.85v-7.25Z"/><path class="ef98a970-9351-4ad1-b75e-3f7dea15c08d" d="M751.34,322.6,751,322c-3.76,2-9.49.11-9.49-5.62,0-8.58,12.73-8.58,12.73,0a6.72,6.72,0,0,1-1,3.67l1.28,2.11v.41Zm-.32-6.19a3.11,3.11,0,1,0-6.21,0A3.11,3.11,0,1,0,751,316.41Z"/><path class="ef98a970-9351-4ad1-b75e-3f7dea15c08d" d="M759.8,312.83a1.1,1.1,0,0,0-1.23,1.21h-2.69a3.76,3.76,0,0,1,4-4.05c3.56-.08,5.12,3.44,3.28,6.3l-2.5,3.47h3.69v2.84h-8.73v-.48l4.67-6.82C760.88,314.46,761.36,312.83,759.8,312.83Z"/><path class="ef98a970-9351-4ad1-b75e-3f7dea15c08d" d="M848.62,322.6l-.3-.57c-3.76,2-9.49.11-9.49-5.62,0-8.58,12.73-8.58,12.73,0a6.72,6.72,0,0,1-1,3.67l1.28,2.11v.41Zm-.32-6.19a3.11,3.11,0,1,0-6.21,0A3.11,3.11,0,1,0,848.3,316.41Z"/><path class="ef98a970-9351-4ad1-b75e-3f7dea15c08d" d="M855.94,318.81c0,.81.55,1.22,1.4,1.22a1.37,1.37,0,0,0,1.37-1.49c0-1.79-1.79-1.72-3.14-1.67v-.42l1.65-3.44h-3.58v-2.82h7.89v.46l-2.29,4.19c2,.49,2.53,2.09,2.53,3.68a4.21,4.21,0,0,1-4.36,4.33,4.35,4.35,0,0,1-2.21-.53,4,4,0,0,1-2-3.51Z"/><path class="ef98a970-9351-4ad1-b75e-3f7dea15c08d" d="M946.29,322.6,946,322c-3.76,2-9.49.11-9.49-5.62,0-8.58,12.73-8.58,12.73,0a6.72,6.72,0,0,1-1,3.67l1.28,2.11v.41Zm-.32-6.19a3.11,3.11,0,1,0-6.21,0A3.11,3.11,0,1,0,946,316.41Z"/><path class="ef98a970-9351-4ad1-b75e-3f7dea15c08d" d="M958.82,322.6h-2.94v-2.36h-5.41v-1.38l4.95-8.67h3.4v7.46h1.07v2.59h-1.07Zm-4.8-5h2v-1.86l.24-1.89h0Z"/><path class="68c69336-11c4-4c08-8724-fef73e9d3238" d="M624.81,347.8a2.43,2.43,0,0,1-2.66,2.37,2.36,2.36,0,0,1-2.58-2.37v-.9h1.66v.87a.83.83,0,0,0,.92.83.78.78,0,0,0,.86-.83v-3h-1v-1.57h2.81Z"/><path class="68c69336-11c4-4c08-8724-fef73e9d3238" d="M630.49,349.23h-2.72l-.4.86h-1.73v-.25l3.11-6.73h.76l3.11,6.73v.25H630.9Zm-1.37-3.33-.77,1.81h1.56Z"/><path class="68c69336-11c4-4c08-8724-fef73e9d3238" d="M635.35,346.7v3.39h-1.83v-6.93h.64l3.49,3.42v-3.39h1.81v6.91h-.63Z"/><path class="68c69336-11c4-4c08-8724-fef73e9d3238" d="M670.09,347.86v2.23h-1.8v-6.9h4.3v1.58h-2.5v1.51h2.21v1.58Z"/><path class="68c69336-11c4-4c08-8724-fef73e9d3238" d="M678.25,344.77H675.7v1h2.35v1.56H675.7v1.22h2.64v1.56H674v-6.9h4.3Z"/><path class="68c69336-11c4-4c08-8724-fef73e9d3238" d="M684.41,346.51a1.48,1.48,0,0,1,.83,1.41,2,2,0,0,1-2.15,2.17h-3.24v-6.9h2.95a2.12,2.12,0,0,1,2.15,2.12A1.68,1.68,0,0,1,684.41,346.51Zm-2.85-1.74v1.13h1.11a.57.57,0,0,0,0-1.13Zm0,2.58v1.18H683c.71,0,.7-1.18,0-1.18Z"/><path class="68c69336-11c4-4c08-8724-fef73e9d3238" d="M722.5,343.17h.63v6.92h-1.81V347l-1.46,1.54h-.2L718.2,347v3.07h-1.8v-6.92h.65l2.7,3Z"/><path class="68c69336-11c4-4c08-8724-fef73e9d3238" d="M728.86,349.23h-2.72l-.41.86H724v-.25l3.1-6.73h.76l3.12,6.73v.25h-1.73Zm-1.37-3.33-.77,1.81h1.56Z"/><path class="68c69336-11c4-4c08-8724-fef73e9d3238" d="M737.71,349.84v.25h-2l-1.18-2h-.92v2h-1.76v-6.9h3a2.45,2.45,0,0,1,1.45,4.46Zm-2.8-5.07h-1.27v1.71h1.27C735.86,346.48,735.91,344.78,734.91,344.77Z"/><path class="68c69336-11c4-4c08-8724-fef73e9d3238" d="M769.84,349.23h-2.72l-.4.86H765v-.25l3.11-6.73h.76l3.11,6.73v.25h-1.72Zm-1.37-3.33-.77,1.81h1.56Z"/><path class="68c69336-11c4-4c08-8724-fef73e9d3238" d="M772.87,350.09v-6.9h3c3.3,0,3.3,5.14,0,5.14h-1.27v1.76Zm3-5.32h-1.26v2h1.26C776.86,346.74,776.92,344.78,775.9,344.77Z"/><path class="68c69336-11c4-4c08-8724-fef73e9d3238" d="M785.53,349.84v.25h-2l-1.18-2h-.92v2H779.7v-6.9h3a2.46,2.46,0,0,1,1.46,4.46Zm-2.81-5.07h-1.26v1.71h1.26C783.68,346.48,783.73,344.78,782.72,344.77Z"/><path class="68c69336-11c4-4c08-8724-fef73e9d3238" d="M822.48,343.17h.63v6.92H821.3V347l-1.46,1.54h-.2L818.18,347v3.07h-1.8v-6.92H817l2.7,3Z"/><path class="68c69336-11c4-4c08-8724-fef73e9d3238" d="M828.84,349.23h-2.72l-.41.86H824v-.25l3.1-6.73h.76l3.12,6.73v.25h-1.73Zm-1.37-3.33-.77,1.81h1.56Z"/><path class="68c69336-11c4-4c08-8724-fef73e9d3238" d="M834.45,350.09h-1.74V347.2l-2.32-3.74v-.27h1.9l1.26,2.3h.06l1.26-2.3h1.91v.27l-2.33,3.74Z"/><path class="68c69336-11c4-4c08-8724-fef73e9d3238" d="M866.93,347.8a2.43,2.43,0,0,1-2.66,2.37,2.37,2.37,0,0,1-2.59-2.37v-.9h1.67v.87a.82.82,0,0,0,.92.83.77.77,0,0,0,.85-.83v-3h-1v-1.57h2.81Z"/><path class="68c69336-11c4-4c08-8724-fef73e9d3238" d="M872.34,347.77v-4.58h1.71v4.61a2.77,2.77,0,0,1-5.49,0v-4.61h1.68v4.58c0,.56.55.84,1.06.84A.93.93,0,0,0,872.34,347.77Z"/><path class="68c69336-11c4-4c08-8724-fef73e9d3238" d="M877.56,346.7v3.39h-1.82v-6.93h.64l3.49,3.42v-3.39h1.8v6.91H881Z"/><path class="68c69336-11c4-4c08-8724-fef73e9d3238" d="M918,347.8a2.43,2.43,0,0,1-2.66,2.37,2.36,2.36,0,0,1-2.58-2.37v-.9h1.67v.87a.82.82,0,0,0,.91.83.77.77,0,0,0,.86-.83v-3h-1v-1.57H918Z"/><path class="68c69336-11c4-4c08-8724-fef73e9d3238" d="M923.45,347.77v-4.58h1.69v4.61a2.76,2.76,0,0,1-5.47,0v-4.61h1.68v4.58c0,.56.54.84,1.06.84A.93.93,0,0,0,923.45,347.77Z"/><path class="68c69336-11c4-4c08-8724-fef73e9d3238" d="M928.61,348.51h2.5v1.58h-4.27v-6.9h1.77Z"/><path class="68c69336-11c4-4c08-8724-fef73e9d3238" d="M966.1,349.23h-2.72l-.41.86h-1.72v-.25l3.1-6.73h.76l3.12,6.73v.25H966.5Zm-1.37-3.33-.78,1.82h1.58Z"/><path class="68c69336-11c4-4c08-8724-fef73e9d3238" d="M972.78,347.77v-4.58h1.68v4.61a2.76,2.76,0,0,1-5.47,0v-4.61h1.69v4.58c0,.56.54.84,1.05.84S972.78,348.33,972.78,347.77Z"/><path class="68c69336-11c4-4c08-8724-fef73e9d3238" d="M979.29,343.11a3,3,0,0,1,3.17,2.44h-1.73a1.42,1.42,0,0,0-1.44-.83,1.73,1.73,0,0,0-1.72,1.92,1.7,1.7,0,0,0,1.72,1.9,1.41,1.41,0,0,0,1.48-.85H979.3v-1.53h3.26a5,5,0,0,1-.2,2,3,3,0,0,1-3.07,2,3.53,3.53,0,1,1,0-7.06Z"/><rect class="87a007fb-8cd6-4e5a-8c54-f13288b50290" x="871.76" y="247.6" width="75.2" height="20.46"/><path class="17a3d64a-64c1-4ef9-b951-0dd7d5e6fbc5" d="M898.67,257.34,905,239.23a2.62,2.62,0,0,0-1.79-3.15c-18.11-7.07-13.64-34.83,6.11-34.83s24.23,27.76,6.12,34.83a2.6,2.6,0,0,0-1.79,3.15L920,257.34c1.08,3.09,6,1.76,4.94-1.36l-6.36-18.11L916.83,241c10.74-4.19,17.44-14.88,15.12-26.47a23.07,23.07,0,0,0-45.19,0c-2.33,11.59,4.39,22.28,15.12,26.47l-1.79-3.15L893.73,256c-1.09,3.11,3.85,4.45,4.94,1.36Z"/><rect class="87a007fb-8cd6-4e5a-8c54-f13288b50290" x="655.06" y="247.6" width="75.2" height="20.46"/><path class="17a3d64a-64c1-4ef9-b951-0dd7d5e6fbc5" d="M682,257.34l6.36-18.11a2.62,2.62,0,0,0-1.79-3.15c-18.1-7.07-13.64-34.83,6.12-34.83s24.22,27.76,6.11,34.83a2.61,2.61,0,0,0-1.79,3.15l6.36,18.11c1.09,3.09,6,1.76,4.94-1.36l-6.36-18.11c-.59,1-1.19,2.1-1.79,3.15,10.74-4.19,17.45-14.88,15.12-26.47a23.06,23.06,0,0,0-45.18,0c-2.34,11.59,4.38,22.28,15.11,26.47-.59-1.05-1.19-2.1-1.79-3.15L677,256c-1.09,3.11,3.86,4.45,4.94,1.36Z"/><path class="1417c864-3349-4acf-924b-e2fae97bba3d" d="M679.89,206.67a18.25,18.25,0,0,1,25.54-.16c2.41,2.25,6-1.37,3.62-3.62a23.47,23.47,0,0,0-32.78.16c-2.4,2.28,1.23,5.9,3.62,3.62Z"/><polygon class="ee89003d-fa7b-4f28-899d-6a6aabf59700" points="694.07 272.69 691.25 272.69 655.06 272.69 655.06 291.98 668.49 291.98 673.56 281.14 678.63 291.98 691.25 291.98 694.07 291.98 706.69 291.98 711.75 281.14 716.82 291.98 730.26 291.98 730.26 272.69 694.07 272.69"/><polygon class="ee89003d-fa7b-4f28-899d-6a6aabf59700" points="910.76 272.69 907.95 272.69 871.75 272.69 871.75 291.98 885.19 291.98 890.26 281.14 895.33 291.98 907.95 291.98 910.76 291.98 923.38 291.98 928.45 281.14 933.52 291.98 946.96 291.98 946.96 272.69 910.76 272.69"/><polygon class="8f08a0fc-66bc-4b6c-b34a-def9cf19495d" points="694.07 254.72 691.25 254.72 655.06 254.72 655.06 287.48 668.49 287.48 673.56 276.63 678.63 287.48 691.25 287.48 694.07 287.48 706.69 287.48 711.75 276.63 716.82 287.48 730.26 287.48 730.26 254.72 694.07 254.72"/><polygon class="8f08a0fc-66bc-4b6c-b34a-def9cf19495d" points="910.76 254.72 907.95 254.72 871.75 254.72 871.75 287.48 885.19 287.48 890.26 276.63 895.33 287.48 907.95 287.48 910.76 287.48 923.38 287.48 928.45 276.63 933.52 287.48 946.96 287.48 946.96 254.72 910.76 254.72"/><path class="1417c864-3349-4acf-924b-e2fae97bba3d" d="M896.59,206.67a18.24,18.24,0,0,1,25.53-.16c2.41,2.25,6-1.37,3.63-3.62a23.48,23.48,0,0,0-32.79.16c-2.39,2.28,1.24,5.9,3.63,3.62Z"/><rect class="86063cf4-de28-41b6-8b7d-065bb0f7459b" x="1008.28" y="540.54" width="163.82" height="94.53" rx="6.98" ry="6.98" transform="translate(175.09 1422.44) rotate(-70.7)"/><rect x="1010.72" y="533.55" width="163.82" height="94.53" rx="6.98" ry="6.98" transform="matrix(0.33, -0.94, 0.94, 0.33, 183.32, 1420.07)"/><path class="63112e31-0cc9-4d48-a28b-11d883917ec3" d="M1130.78,515.09c-.42,1.2-2.23,1.65-4,1L1106.37,509c-1.82-.64-3-2.12-2.54-3.31h0c.42-1.2,2.23-1.65,4.05-1l20.36,7.13c1.82.63,3,2.12,2.54,3.31Z"/><path class="824741b8-acf6-49be-be08-03358fabc06c" d="M1107.82,643.17,1041.54,620c-2.2-.77-3.82-1.35-3-3.55l38.39-110.15a4.22,4.22,0,0,1,5.38-2.59l66.28,23.21a4.22,4.22,0,0,1,2.59,5.38L1113.2,640.58A4.22,4.22,0,0,1,1107.82,643.17Z"/><rect class="0ca14fd6-05f4-4eba-b25e-df2ca587b081" x="1032.98" y="535.92" width="123.21" height="78.67" rx="4.22" ry="4.22" transform="translate(189.88 1418.19) rotate(-70.7)"/><path class="a5633c78-0e46-45e4-af1b-aedcb8a0aaed" d="M1148.08,528.72l-66.27-23.22a4.23,4.23,0,0,0-5.39,2.59l-37.93,108.32a4.19,4.19,0,0,0,0,2.86l112.1-88A4.16,4.16,0,0,0,1148.08,528.72Z"/><circle class="63112e31-0cc9-4d48-a28b-11d883917ec3" cx="1070.19" cy="644.91" r="9.28" transform="translate(-62.76 117.98) rotate(-6.13)"/><path class="86063cf4-de28-41b6-8b7d-065bb0f7459b" d="M1077.54,648.65a8.17,8.17,0,1,1-5-10.41A8.17,8.17,0,0,1,1077.54,648.65Z"/><rect x="1066.62" y="641.34" width="7.14" height="7.14" rx="1.59" ry="1.59" transform="translate(107.79 1441.77) rotate(-70.7)"/><path class="18a5449e-8db4-4317-af09-493bda9c13bc" d="M1109.57,316.7,935.47,193a4.36,4.36,0,0,1-1.84-3.67c0-.84,0-9.31,0-9.31l21.12-21.69a4.37,4.37,0,0,1,6.09-1l175.94,118.08s0,7.91,0,9.31a4.28,4.28,0,0,1-.81,2.42l-20.31,28.59A4.37,4.37,0,0,1,1109.57,316.7Z"/><path class="3e39ce16-54e6-4edf-b103-3dd691af5d01" d="M1109.57,307.39,935.47,183.67a4.36,4.36,0,0,1-1-6.09L954.75,149a4.38,4.38,0,0,1,6.09-1l174.1,123.72a4.36,4.36,0,0,1,1,6.09l-20.31,28.59A4.38,4.38,0,0,1,1109.57,307.39Z"/><path class="a889e1c6-5920-4500-8bb6-37df4103951f" d="M1109.57,307.39,935.47,183.67a4.36,4.36,0,0,1-1-6.09l5-7.06,181.22,128.77-5,7.07A4.38,4.38,0,0,1,1109.57,307.39Z"/><path class="56b675f3-4761-4913-91b8-cb13d6b692da" d="M940,169.76l-3.53,5a4.37,4.37,0,0,0,1,6.09l174.1,123.72a4.38,4.38,0,0,0,6.09-1l3.53-5Z"/><g class="bc67fb99-8a6d-4415-ba6c-c455b827d931"><path class="d3e29d67-1574-4426-94ab-8db6dd6ca447" d="M960.78,147.93a4.37,4.37,0,0,0-6,1.06l-20.31,28.59a4.35,4.35,0,0,0,1,6Z"/></g><g class="bc67fb99-8a6d-4415-ba6c-c455b827d931"><path class="a889e1c6-5920-4500-8bb6-37df4103951f" d="M1109.63,307.42a4.37,4.37,0,0,0,6-1.06L1136,277.77a4.35,4.35,0,0,0-1-6Z"/></g><line class="aaee8624-5bc6-4361-8260-e7de626eeec4" x1="1045.33" y1="208.01" x2="1038.59" y2="217.49"/><line class="aaee8624-5bc6-4361-8260-e7de626eeec4" x1="1070.05" y1="225.58" x2="1063.32" y2="235.06"/><line class="aaee8624-5bc6-4361-8260-e7de626eeec4" x1="1094.78" y1="243.15" x2="1088.04" y2="252.63"/><line class="aaee8624-5bc6-4361-8260-e7de626eeec4" x1="971.15" y1="155.3" x2="964.41" y2="164.78"/><line class="aaee8624-5bc6-4361-8260-e7de626eeec4" x1="995.87" y1="172.87" x2="989.14" y2="182.35"/><line class="aaee8624-5bc6-4361-8260-e7de626eeec4" x1="1020.6" y1="190.44" x2="1013.86" y2="199.92"/><line class="aaee8624-5bc6-4361-8260-e7de626eeec4" x1="1119.51" y1="260.72" x2="1112.77" y2="270.2"/><line class="25a99e1e-13db-4325-a7a1-e6d40bae60c2" x1="1058.07" y1="217.06" x2="1054.7" y2="221.8"/><line class="25a99e1e-13db-4325-a7a1-e6d40bae60c2" x1="1082.8" y1="234.63" x2="1079.43" y2="239.38"/><line class="25a99e1e-13db-4325-a7a1-e6d40bae60c2" x1="1107.52" y1="252.21" x2="1104.15" y2="256.95"/><line class="25a99e1e-13db-4325-a7a1-e6d40bae60c2" x1="983.89" y1="164.35" x2="980.52" y2="169.09"/><line class="25a99e1e-13db-4325-a7a1-e6d40bae60c2" x1="1008.62" y1="181.92" x2="1005.25" y2="186.66"/><line class="25a99e1e-13db-4325-a7a1-e6d40bae60c2" x1="1033.34" y1="199.49" x2="1029.98" y2="204.23"/><rect class="3541ce03-6555-462b-85d2-0e5282b80bf6" x="804.83" y="660.54" width="154.36" height="17.27" transform="translate(-194.56 410.84) rotate(-23.69)"/><rect class="56b675f3-4761-4913-91b8-cb13d6b692da" x="806.56" y="668.81" width="154.36" height="8.63" transform="translate(-196 411.88) rotate(-23.69)"/><polygon class="a2923979-10dc-4db9-958e-6e8c1f85b193" points="956.15 646.06 973.08 629.2 952.68 638.16 950.5 642.53 955.02 643.84 953.88 647.06 956.15 646.06"/><polygon class="d59ba862-0923-445f-a855-f4e073a80fe1" points="949.21 630.25 946.94 631.25 950.09 632.59 947.98 636.8 952.68 638.16 973.08 629.2 949.21 630.25"/><polygon class="fadc242f-02f0-42c9-968e-d9caeecfcf28" points="973.08 629.2 965.8 629.52 967.92 634.35 973.08 629.2"/><path class="41a3e4f3-9947-4600-90de-a47c10026b0c" d="M791.73,709.91,790.9,708a7.6,7.6,0,0,1,3.91-10l8.27-3.63L810,710.19l-8.27,3.63A7.6,7.6,0,0,1,791.73,709.91Z"/><path class="8ec01d9f-17a0-411a-9b6f-f4b18bc7ae18" d="M809,707.92l-8.28,3.64a7.59,7.59,0,0,1-9.92-3.73c0,.07,0,.13.07.2l.83,1.88a7.6,7.6,0,0,0,10,3.91l8.27-3.63Z"/><path class="3938126b-5fec-46ae-b5d1-d02fbf1163b9" d="M797.71,706.16c-1.66.73-3.71-.27-4.57-2.24l-.18-.41c-.86-2-.22-4.15,1.45-4.88l8.24-3.62c1.66-.73,3.71.28,4.58,2.24l.17.41a3.62,3.62,0,0,1-1.44,4.88Z"/><rect class="3913d295-0dcc-4302-93a6-0139a6cc9a64" x="805.18" y="692.84" width="6.42" height="17.27" transform="translate(-213.74 383.98) rotate(-23.69)"/><rect class="692c14b6-7c42-4e5b-9e4b-d790a2f8e5f7" x="803.45" y="693.2" width="6.42" height="8.63" transform="translate(-212.3 382.95) rotate(-23.69)"/><line class="aacf4acc-c5d1-480d-8d1e-b5d2f2c60bbb" x1="809.59" y1="700.95" x2="813.06" y2="708.86"/><line class="21049dac-b403-4b9b-9469-cb931585f2e4" x1="806.12" y1="693.05" x2="809.59" y2="700.95"/><line class="aacf4acc-c5d1-480d-8d1e-b5d2f2c60bbb" x1="807.2" y1="702" x2="810.67" y2="709.9"/><line class="21049dac-b403-4b9b-9469-cb931585f2e4" x1="803.73" y1="694.09" x2="807.2" y2="702"/><path class="72ba8529-1303-459e-8335-84d3855e5f5e" d="M796.4,703.41a1.93,1.93,0,0,1-2.44-1.2l-.1-.22a1.94,1.94,0,0,1,.77-2.61l4.42-1.94a2,2,0,0,1,2.45,1.2l.09.22a2,2,0,0,1-.77,2.62Z"/><polygon class="42c9de3b-dbce-4ee2-b5b9-0b939f31fb0b" points="557.3 732.84 557.3 719.22 561.78 714.89 561.78 728.19 557.3 732.84"/></g></g></svg>